<svg width="161" height="161" viewBox="0 0 161 161" fill="none" xmlns="http://www.w3.org/2000/svg">
<circle cx="80.1694" cy="80.1694" r="80.1694" fill="url(#paint0_linear_42_27)"/>
<path d="M60.4121 97.1624L68.0571 133.239H92.1073M60.4121 97.1624C60.4121 85.1368 59.0369 82.1304 53.0242 76.1176C47.0114 70.1048 44.1433 64.0139 44.005 55.0728C43.7163 36.7338 56.0305 25.0089 80.0817 25.0089M60.4121 97.1624H98.9121C98.9121 85.1368 101.127 82.1304 107.139 76.1176C113.152 70.1048 116.02 64.0139 116.159 55.0728C116.447 36.7338 104.133 25.0089 80.0817 25.0089M80.0817 25.0089C80.0817 25.0089 94.1317 24.5177 104.134 30.8496M65.0507 115.201H96.2961M68.7198 60.9397L69.0273 77.8471L69.9908 97.1624H96.2961M68.7198 60.9397C68.7198 67.2148 73.8067 72.3017 80.0817 72.3017C86.3568 72.3017 91.4437 67.2148 91.4437 60.9397C91.4437 54.6647 86.3568 49.5777 80.0817 49.5777C73.8067 49.5777 68.7198 54.6647 68.7198 60.9397Z" stroke="white" stroke-width="3" stroke-linecap="round" stroke-linejoin="round"/>
<path d="M92.0195 134.19H67.9693L61.9556 98.1128H98.0323M64.9629 116.151H96.2083M69.903 98.1128L68.9396 78.7974L67.638 60.362M67.638 60.362C67.638 66.637 72.725 71.7239 79 71.7239C85.275 71.7239 90.362 66.637 90.362 60.362C90.362 54.0869 85.275 49 79 49C72.725 49 67.638 54.0869 67.638 60.362Z" stroke="white" stroke-width="6" stroke-linecap="round" stroke-linejoin="round"/>
<defs>
<linearGradient id="paint0_linear_42_27" x1="80.1694" y1="0" x2="80.1694" y2="160.339" gradientUnits="userSpaceOnUse">
<stop stop-color="#00E4DA"/>
<stop offset="1" stop-color="#075EEB"/>
</linearGradient>
</defs>
</svg>
